<svg xmlns="http://www.w3.org/2000/svg" xmlns:xlink="http://www.w3.org/1999/xlink" xml:space="preserve" version="1.1" style="shape-rendering:geometricPrecision;text-rendering:geometricPrecision;image-rendering:optimizeQuality;" viewBox="0 0 235 260" x="0px" y="0px" fill-rule="evenodd" clip-rule="evenodd"><defs><style type="text/css">
   
    .fil0 {fill:black}
   
  </style></defs><g><path class="fil0" d="M129 109c11,5 20,13 27,22 4,-1 9,-2 14,-2 36,0 65,29 65,65 0,36 -29,66 -65,66 -36,0 -65,-30 -65,-66 0,-22 11,-42 29,-54 -12,-12 -28,-19 -46,-19 -31,0 -58,22 -64,52l-1 5 -23 0 1 -7c5,-27 22,-50 45,-62 -13,-12 -21,-29 -21,-47 0,-34 28,-62 63,-62 34,0 62,28 62,62 0,18 -8,35 -21,47zm33 96l45 -46 13 13 -58 58 -42 -42 12 -13 30 30zm-74 -182c-22,0 -40,17 -40,39 0,22 18,40 40,40 22,0 40,-18 40,-40 0,-22 -18,-39 -40,-39z"></path></g></svg>