<svg xmlns="http://www.w3.org/2000/svg" data-name="Layer 1" viewBox="0 0 100 100" x="0px" y="0px"><title>Artboard 39</title><path d="M37,14V7H13V37H37ZM15,9H35v3H15ZM35,35H15V14H35Z"></path><path d="M13,69V94H37V64H13ZM35,92H15V71H35ZM15,66H35v3H15Z"></path><path d="M63,69V94H87V64H63ZM85,92H65V71H85ZM65,66H85v3H65Z"></path><polygon points="30.65 19.15 31.5 18 29.02 18 23.51 25.81 20.55 22.21 19 23.48 23.64 29.11 30.65 19.15"></polygon><path d="M63,7V37H87V7ZM85,35H65V14H85Zm0-23H65V9H85Z"></path><polygon points="80.4 19.15 81.25 18 78.77 18 73.26 25.81 70.3 22.21 68.75 23.48 73.39 29.11 80.4 19.15"></polygon><polygon points="48.76 52.26 45.8 48.65 44.25 49.92 48.88 55.55 55.9 45.6 56.75 44.45 54.27 44.45 48.76 52.26"></polygon><polygon points="30.65 77.15 31.5 76 29.02 76 23.51 83.81 20.55 80.21 19 81.48 23.64 87.11 30.65 77.15"></polygon><polygon points="80.4 77.15 81.25 76 78.77 76 73.26 83.81 70.3 80.21 68.75 81.48 73.39 87.11 80.4 77.15"></polygon><path d="M58,18a4,4,0,0,0-3.86,3H45.86a4,4,0,1,0,0,2h8.28A4,4,0,1,0,58,18ZM42,24a2,2,0,1,1,2-2A2,2,0,0,1,42,24Zm16,0a2,2,0,1,1,2-2A2,2,0,0,1,58,24Z"></path><path d="M26,54.14V45.86a4,4,0,1,0-2,0v8.28a4,4,0,1,0,2,0ZM23,42a2,2,0,1,1,2,2A2,2,0,0,1,23,42Zm2,18a2,2,0,1,1,2-2A2,2,0,0,1,25,60Z"></path><path d="M76,54.14V45.86a4,4,0,1,0-2,0v8.28a4,4,0,1,0,2,0ZM73,42a2,2,0,1,1,2,2A2,2,0,0,1,73,42Zm2,18a2,2,0,1,1,2-2A2,2,0,0,1,75,60Z"></path><path d="M58,76a4,4,0,0,0-3.86,3H45.86a4,4,0,1,0,0,2h8.28A4,4,0,1,0,58,76ZM42,82a2,2,0,1,1,2-2A2,2,0,0,1,42,82Zm16,0a2,2,0,1,1,2-2A2,2,0,0,1,58,82Z"></path><path d="M50,36.54A13.46,13.46,0,1,0,63.46,50,13.45,13.45,0,0,0,50,36.54Zm0,24.92A11.46,11.46,0,1,1,61.46,50,11.47,11.47,0,0,1,50,61.46Z"></path></svg>