<svg xmlns="http://www.w3.org/2000/svg" xmlns:xlink="http://www.w3.org/1999/xlink" xmlns:sketch="http://www.bohemiancoding.com/sketch/ns" viewBox="0 0 73 100" version="1.1" x="0px" y="0px"><title>document_file_2</title><description>Created with Sketch (http://www.bohemiancoding.com/sketch)</description><g stroke="none" stroke-width="1" fill="none" fill-rule="evenodd" sketch:type="MSPage"><path d="M0,97.7750651 L0,2.22222222 C0,0 2.21212121,0 2.21212121,0 L53.0909091,0 L73,20 L73,97.7777778 C73,100 70.7878788,100 70.7878788,100 L2.21212121,100 C2.21212121,100 0,100 0,97.7750651 Z M5,92.9608472 L5,7.03666667 C5,5 6.94228856,5 6.94228856,5 L50.7538278,5 L50.7538278,21.1418789 C50.7538278,23.3085455 52.8871611,23.3085455 52.8871611,23.3085455 L68,23.3085455 L68,92.9633333 C68,95 66.0577114,95 66.0577114,95 L6.94228856,95 C6.94228856,95 5,95 5,92.9608472 Z M11,16 L11,21 L43,21 L43,16 L11,16 Z M11,32 L11,37 L61,37 L61,32 L11,32 Z M11,48 L11,53 L61,53 L61,48 L11,48 Z M11,64 L11,69 L61,69 L61,64 L11,64 Z M11,80 L11,85 L61,85 L61,80 L11,80 Z M11,80" fill="#000000" sketch:type="MSShapeGroup"></path></g></svg>