<svg xmlns="http://www.w3.org/2000/svg" data-name="Layer 1" viewBox="0 0 100 100" x="0px" y="0px"><title>99all</title><path d="M36.8,90.56A8.81,8.81,0,1,0,28,81.75,8.82,8.82,0,0,0,36.8,90.56Zm0-11.61A2.81,2.81,0,1,1,34,81.75,2.81,2.81,0,0,1,36.8,78.95Z"></path><path d="M55.48,90.56a8.81,8.81,0,1,0-8.81-8.8A8.82,8.82,0,0,0,55.48,90.56Zm0-11.61a2.81,2.81,0,1,1-2.81,2.81A2.81,2.81,0,0,1,55.48,78.95Z"></path><path d="M9.31,81.75a8.81,8.81,0,1,0,8.81-8.81A8.82,8.82,0,0,0,9.31,81.75Zm8.81-2.81a2.81,2.81,0,1,1-2.81,2.81A2.81,2.81,0,0,1,18.11,78.95Z"></path><path d="M90.43,46.88V13.11A3,3,0,0,0,89.9,9.6l-7-7a3,3,0,0,0-4.22,0L45.44,35.28H19.93a9,9,0,0,0-9,9V60.42a3,3,0,0,0,3,3H18.8v1.85H17.22a16.48,16.48,0,0,0,0,33H56.38a16.48,16.48,0,0,0,0-33H54.8V63.42h4.87a3,3,0,0,0,3-3v-9l21.77-30v28a3,3,0,0,0,3,3,5.83,5.83,0,1,1-5.38,8.1,3,3,0,0,0-5.53,2.34,11.83,11.83,0,1,0,13.9-16.06Zm-14.86-26L68,21.57l6.64-6.51Zm-9.77,16-1.28-9,8.36-.72Zm-7-6.38,1.85,13a16.09,16.09,0,0,0-7.92-7.09ZM56.19,48.26H46.9a1,1,0,0,1-.88-.52l-3.53-6.46h4.17A10,10,0,0,1,56.19,48.26Zm10.66,33.5A10.49,10.49,0,0,1,56.38,92.23H17.22a10.48,10.48,0,0,1,0-21H56.38A10.49,10.49,0,0,1,66.86,81.75ZM48.8,65.27h-24V63.42h24ZM16.93,57.42V44.28a3,3,0,0,1,3-3H35.65l5.1,9.34a7,7,0,0,0,6.14,3.64h9.77v3.17ZM80.88,16.14l-1-6.22L80.81,9l3,3Z"></path></svg>