<svg xmlns="http://www.w3.org/2000/svg" xmlns:xlink="http://www.w3.org/1999/xlink" version="1.1" x="0px" y="0px" viewBox="-0.0002441 0 161.4921875 162.7324219" enable-background="new -0.0002441 0 161.4921875 162.7324219" xml:space="preserve"><path fill="#000000" d="M142.2370605,70.6240234c-6.8466797,0-12.3974609,5.5507813-12.3974609,12.3974609  c0,1.8662109,0.4248047,3.6298828,1.1621094,5.2158203l-12.0117188-0.7890625l4.8222656,5.5l-3.0771484,2.7041016  c-2.2363281-2.1953125-5.2988281-3.5527344-8.6796875-3.5527344c-4.9326172,0-9.1796875,2.8896484-11.1767578,7.0595703  l-0.7832031-11.9462891l-4.8144531,5.4912109L82.7419434,81.6855469l12.5390625-11.019043l4.8144531,5.4912109l0.7832031-11.9462891  c1.9970703,4.1713867,6.2441406,7.0595703,11.1767578,7.0595703c3.3339844,0,6.3544922-1.3232422,8.5830078-3.4643555  l3.9814453,3.4990234l-4.8222656,5.5004883l12.0634766-0.7929688l-0.7929688-12.0639648l-4.8134766,5.4912109l-4.0048828-3.519043  c1.3867188-2.0019531,2.203125-4.4282227,2.203125-7.0473633c0-6.8476563-5.5498047-12.3984375-12.3974609-12.3984375  c-6.8466797,0-12.3974609,5.5507813-12.3974609,12.3984375c0,1.8657227,0.4238281,3.628418,1.1630859,5.2158203  l-11.9970703-0.7880859l4.8222656,5.5009766L81.2946777,79.6572266c-1.3505859-5.3847656-6.2080078-9.3779297-12.0112305-9.3779297  c-6.5083008,0-11.8349609,5.0180664-12.347168,11.3955078l-8.5375977-8.5375977v7.309082H28.0603027  c-0.2636719-2.6572266-1.3745117-5.059082-3.0478516-6.9536133l29.8808594-26.2578125l4.8139648,5.4907227l0.7817383-11.8959961  c2.2451172,2.2612305,5.355957,3.6625977,8.7944336,3.6625977c5.4335938,0,10.0395508-3.5014648,11.7138672-8.3666992  l12.8969727,11.3325195l-4.8212891,5.5004883l12.0625-0.7924805l-0.7919922-12.0634766L95.5290527,45.59375L81.6159668,33.3681641  c0.0429688-0.4189453,0.0644531-0.8432617,0.0644531-1.2734375c0-6.8466797-5.5498047-12.3974609-12.3969727-12.3974609  s-12.3974609,5.5507813-12.3974609,12.3974609c0,3.3208008,1.3134766,6.3300781,3.4399414,8.5556641l-11.8886719-0.7807617  l4.8222656,5.5009766L23.1833496,71.7988281c-2.0771484-1.5688477-4.6542969-2.5107422-7.4580078-2.5107422  c-6.8466797,0-12.3974609,5.550293-12.3974609,12.3979492c0,6.8461914,5.5507813,12.3969727,12.3974609,12.3969727  c2.8037109,0,5.3808594-0.9414063,7.4580078-2.5107422L53.2595215,118l-4.8222656,5.5009766l11.8886719-0.7802734  c-2.1264648,2.2255859-3.4399414,5.234375-3.4399414,8.5556641c0,6.8476563,5.550293,12.3974609,12.3974609,12.3974609  s12.3969727-5.5498047,12.3969727-12.3974609c0-0.4052734-0.0214844-0.8066406-0.0595703-1.2021484l13.9082031-12.2226563  l4.8144531,5.4912109l0.7919922-12.0634766l-12.0625-0.7919922l4.8212891,5.5l-12.8759766,11.3134766  c-1.6577148-4.8935547-6.2797852-8.4208984-11.7348633-8.4208984c-3.4384766,0-6.5493164,1.4003906-8.7944336,3.6621094  l-0.7817383-11.8964844l-4.8139648,5.4912109L25.0124512,89.8789063c1.6733398-1.8945313,2.7841797-4.296875,3.0478516-6.953125  h20.3378906v7.3076172l8.5371094-8.5366211c-0.0253906,0.324707-0.0493164,0.6489258-0.0493164,0.9799805  c0,6.8476563,5.550293,12.3974609,12.3974609,12.3974609c6.4018555,0,11.6689453-4.8535156,12.3256836-11.0820313  l12.0371094,10.5761719l-4.8222656,5.5009766l11.9970703-0.7880859c-0.7392578,1.5878906-1.1630859,3.3505859-1.1630859,5.2158203  c0,6.8476563,5.5507813,12.3974609,12.3974609,12.3974609c6.8476563,0,12.3974609-5.5498047,12.3974609-12.3974609  c0-2.5722656-0.7832031-4.9619141-2.1259766-6.9423828l3.1191406-2.7412109l4.8134766,5.4912109l0.7871094-11.9755859  c1.9892578,4.1884766,6.2460938,7.0898438,11.1904297,7.0898438c6.8466797,0,12.3974609-5.5498047,12.3974609-12.3974609  C154.6345215,76.1748047,149.0837402,70.6240234,142.2370605,70.6240234z M69.2834473,22.6728516  c5.1958008,0,9.421875,4.2265625,9.421875,9.421875s-4.2260742,9.421875-9.421875,9.421875  c-5.1953125,0-9.4223633-4.2265625-9.4223633-9.421875S64.0881348,22.6728516,69.2834473,22.6728516z M69.2834473,121.8554688  c5.1958008,0,9.421875,4.2255859,9.421875,9.4208984s-4.2260742,9.421875-9.421875,9.421875  c-5.1953125,0-9.4223633-4.2265625-9.4223633-9.421875S64.0881348,121.8554688,69.2834473,121.8554688z M69.2834473,92.0986328  c-5.1953125,0-9.4223633-4.2265625-9.4223633-9.421875c0-5.1943359,4.2270508-9.421875,9.4223633-9.421875  c5.1958008,0,9.421875,4.2275391,9.421875,9.421875C78.7053223,87.8720703,74.479248,92.0986328,69.2834473,92.0986328z   M142.2370605,92.4433594c-5.1953125,0-9.421875-4.2265625-9.421875-9.421875s4.2265625-9.4223633,9.421875-9.4223633  s9.4228516,4.2270508,9.4228516,9.4223633S147.432373,92.4433594,142.2370605,92.4433594z"></path></svg>