<svg xmlns="http://www.w3.org/2000/svg" viewBox="0 0 100 100" x="0px" y="0px"><title>•SET10-v2</title><path d="M58.33,86.07H13.53a1.7,1.7,0,0,1-1.7-1.7V22.59a1.7,1.7,0,0,1,1.7-1.7h44.8A1.71,1.71,0,0,1,60,22.59V84.37A1.71,1.71,0,0,1,58.33,86.07Zm-43.1-3.4h41.4V24.29H15.23Z"></path><path d="M44.18,32.26a2.36,2.36,0,1,0-2.35,2.36A2.35,2.35,0,0,0,44.18,32.26Z"></path><path d="M48.67,39.1a2.36,2.36,0,1,0-2.36-2.36A2.36,2.36,0,0,0,48.67,39.1Z"></path><circle cx="42.77" cy="41.93" r="2.36"></circle><circle cx="48.67" cy="47.59" r="2.36"></circle><path d="M77.05,58.91a28.61,28.61,0,1,0-11.4,5.35l10,21.26a6.33,6.33,0,0,0,5.71,3.61,6.29,6.29,0,0,0,5.68-9ZM34.25,36.27A25.26,25.26,0,1,1,59.51,61.52,25.29,25.29,0,0,1,34.25,36.27ZM84.11,83.81a2.91,2.91,0,0,1-3.71,1.75,2.86,2.86,0,0,1-1.64-1.49L69,63.32a28.51,28.51,0,0,0,5.24-2.46L84,81.59A2.9,2.9,0,0,1,84.11,83.81Z"></path></svg>