<svg xmlns="http://www.w3.org/2000/svg" xmlns:xlink="http://www.w3.org/1999/xlink" version="1.2" baseProfile="tiny" x="0px" y="0px" viewBox="0 0 100 100" xml:space="preserve"><path d="M77.5,25h-55c-1.381,0-2.5,1.119-2.5,2.5v45c0,1.381,1.119,2.5,2.5,2.5h55c1.381,0,2.5-1.119,2.5-2.5v-45  C80,26.119,78.881,25,77.5,25z M75,70H25V30h50V70z"></path><circle cx="50" cy="40" r="2.5"></circle><circle cx="50" cy="55" r="1.5"></circle><circle cx="55.303" cy="42.197" r="0.75"></circle><circle cx="44.697" cy="52.803" r="1.75"></circle><circle cx="57.5" cy="47.5" r="1"></circle><circle cx="42.5" cy="47.5" r="2"></circle><circle cx="55.303" cy="52.803" r="1.25"></circle><circle cx="44.697" cy="42.197" r="2.25"></circle></svg>