<svg xmlns="http://www.w3.org/2000/svg" xmlns:xlink="http://www.w3.org/1999/xlink" xml:space="preserve" style="shape-rendering:geometricPrecision;text-rendering:geometricPrecision;image-rendering:optimizeQuality;" viewBox="0 0 18.2602 14.3776" x="0px" y="0px" fill-rule="evenodd" clip-rule="evenodd"><defs><style type="text/css">
   
    .fil0 {fill:black}
   
  </style></defs><g><path class="fil0" d="M9.08315 3.66272l9.17705 0 -0.00430002 3.33012 -1.10291 0 0 -1.65351 -0.563103 0 0.000100001 1.74231 -1.10301 -1.74231 -6.49054 0c-0.0608003,0.241401 -0.142101,0.474703 -0.241601,0.698104 -0.00200001,-4.61543 -6.38093,-6.01773 -8.27515,-1.75741 0,-5.32523 7.85464,-5.85133 8.60345,-0.617303z"></path><path class="fil0" d="M6.08133 2.48261c1.99001,0.884805 2.98222,3.08892 2.40481,5.12553l8.38555 3.72822 -1.35681 3.04122 -1.00781 -0.448102 0.671804 -1.51091 -0.514503 -0.228701 -0.707804 1.59201 -0.300002 -2.04011 -5.93083 -2.63681c-1.19391,1.52181 -3.30982,2.10091 -5.15753,1.27941 -2.18161,-0.970005 -3.16432,-3.52562 -2.19431,-5.70743 0.970005,-2.18171 3.52582,-3.16422 5.70743,-2.19431zm-4.94053 2.50041c-0.379902,0 -0.687904,0.308002 -0.687904,0.687904 0,0.379902 0.308002,0.687904 0.687904,0.687904 0.379902,0 0.687904,-0.308002 0.687904,-0.687904 0,-0.379902 -0.308002,-0.687904 -0.687904,-0.687904z"></path></g></svg>