<svg xmlns="http://www.w3.org/2000/svg" xmlns:xlink="http://www.w3.org/1999/xlink" version="1.1" x="0px" y="0px" viewBox="0 0 64 64" style="enable-background:new 0 0 64 64;" xml:space="preserve"><style type="text/css">
	.st0{display:none;}
	.st1{display:inline;}
	.st2{fill:none;stroke:#B3B3B3;stroke-width:0.1;stroke-miterlimit:10;}
	.st3{fill:none;}
</style><g class="st0"><g class="st1"><rect x="2" y="2" class="st2" width="60" height="60"></rect><line class="st2" x1="32" y1="2" x2="32" y2="62"></line><line class="st2" x1="62" y1="32" x2="2" y2="32"></line><line class="st2" x1="2" y1="2" x2="62" y2="62"></line><rect x="10" y="10" class="st2" width="44" height="44"></rect><line class="st2" x1="62" y1="2" x2="2" y2="62"></line><line class="st2" x1="2" y1="32" x2="32" y2="2"></line><line class="st2" x1="32" y1="2" x2="62" y2="32"></line><line class="st2" x1="62" y1="32" x2="32" y2="62"></line><line class="st2" x1="32" y1="62" x2="2" y2="32"></line><circle class="st2" cx="32" cy="32" r="21"></circle></g></g><path d="M18,34c-2.2,0-4-1.8-4-4s1.8-4,4-4s4,1.8,4,4S20.2,34,18,34z M18,28c-1.1,0-2,0.9-2,2s0.9,2,2,2s2-0.9,2-2S19.1,28,18,28z"></path><path d="M46,41c-2.2,0-4-1.8-4-4s1.8-4,4-4s4,1.8,4,4S48.2,41,46,41z M46,35c-1.1,0-2,0.9-2,2s0.9,2,2,2s2-0.9,2-2S47.1,35,46,35z"></path><path class="st3" d="M26,30c0,1.7,0.7,3.2,1.8,4.2l8.5-8.5c-1.1-1-2.6-1.7-4.3-1.7C28.7,24,26,26.7,26,30z"></path><path class="st3" d="M8,26.9V33c4.2,0.5,7.5,3.8,7.9,7.9H21l22-22H15.9C15.5,23.2,12.2,26.5,8,26.9z"></path><polygon class="st3" points="4,45 17,45 47,15 4,15 "></polygon><path d="M52.3,8.3L47.6,13H2v34h11.6l-4.3,4.3l1.4,1.4l43-43L52.3,8.3z M4,45V15h41.6l-2.1,2.1H14v1c0,3.9-3.1,7-7,7H6v10h1  c3.9,0,7,3.1,7,7v1h3.5L15.6,45H4z M26,30c0-3.3,2.7-6,6-6c1.3,0,2.5,0.4,3.5,1.1l-8.4,8.4C26.4,32.5,26,31.3,26,30z M32,22  c-4.4,0-8,3.6-8,8c0,1.8,0.6,3.5,1.7,4.9l-6.2,6.2h-3.6V41c-0.5-4.2-3.8-7.5-7.9-7.9V27c4.2-0.5,7.5-3.8,7.9-7.9h25.6l-4.6,4.6  C35.5,22.6,33.8,22,32,22z"></path><path d="M47.6,20l-34,34H62V20H47.6z M38,37c0,3.3-2.7,6-6,6c-1.3,0-2.5-0.4-3.5-1.1l8.3-8.3C37.6,34.5,38,35.7,38,37z M32.1,44.9  c4.4,0,8-3.6,8-8c0-1.8-0.6-3.5-1.7-4.9l6-6h3.7c0.5,4.2,3.8,7.5,7.9,7.9V40c-4.2,0.5-7.5,3.8-7.9,7.9H22.5l4.7-4.7  C28.5,44.3,30.2,44.9,32.1,44.9z M60,52H18.4l2.1-2.1H50v-1c0-3.9,3.1-7,7-7h1V32h-1c-3.9,0-7-3.1-7-7v-1h-3.6l2-2H60V52z"></path></svg>