<svg xmlns="http://www.w3.org/2000/svg" data-name="Layer 1" viewBox="0 0 128 128" x="0px" y="0px"><title>expand lines</title><path d="M48.82,64.19a1.87,1.87,0,0,0-1.63,0L36.82,69.92A1.71,1.71,0,0,0,36,71.27V82.73a1.72,1.72,0,0,0,.82,1.36l10.37,5.73a1.87,1.87,0,0,0,1.63,0l10.36-5.73A1.71,1.71,0,0,0,60,82.73V71.27a1.71,1.71,0,0,0-.82-1.36ZM56,81.27l-8,4.42-8-4.42V72.73l8-4.42,8,4.42Z"></path><path d="M122.09,39.11,97.91,25.45a4.29,4.29,0,0,0-3.81,0L69.91,39.11A4.11,4.11,0,0,0,68,42.34V69.66a4.11,4.11,0,0,0,1.91,3.23L94.09,86.55a4.29,4.29,0,0,0,3.81,0l24.19-13.66A4.11,4.11,0,0,0,124,69.66V42.34A4.11,4.11,0,0,0,122.09,39.11ZM120,69.46l0,0L96.07,83h-.14L72,69.5l0,0V42.54l0,0L95.93,29h.13L120,42.51l0,0Z"></path><circle cx="83.15" cy="66" r="2"></circle><path d="M19,39.26l-4,2.27a2,2,0,0,0-1,1.74V49a2,2,0,0,0,4,0V45l.39-.79L21,42.74a2,2,0,0,0-2-3.48Z"></path><path d="M71.78,10.1a2,2,0,0,0-2.69-.88l-4,2A2,2,0,0,0,64,13v4a2,2,0,0,0,4,0V14.25l2.9-1.47A2,2,0,0,0,71.78,10.1Z"></path><path d="M115,88.35a3.2,3.2,0,0,1-1.27,2L87,105.13v-4.5a2.52,2.52,0,0,0-1.16-2L71.16,90.27a2.58,2.58,0,0,0-2.32,0L54.16,98.65a2.52,2.52,0,0,0-1.16,2v4.5L26.27,90.38a3.2,3.2,0,0,1-1.27-2V66.25l13.84-7.89a2.52,2.52,0,0,0,1.16-2V39.63a2.52,2.52,0,0,0-1.16-2l-4.42-2.52,21.79-12a2,2,0,0,0,.74.85L69,30.78a2.15,2.15,0,0,0,1.91,0L83,23.95a2,2,0,0,0,.74-.85L87,24.87l4.09-2.31L84,18.65v-10a2,2,0,0,0-1-1.62L71,.22A2.15,2.15,0,0,0,69,.22L57,7.05a2.05,2.05,0,0,0-1,1.62v10L30.35,32.8l-6.19-3.53a2.58,2.58,0,0,0-2.32,0L7.16,37.65a2.52,2.52,0,0,0-1.16,2V56.37a2.53,2.53,0,0,0,1.16,2L21,66.25V88.35a7,7,0,0,0,3.34,5.53L53,109.7v7.67a2.53,2.53,0,0,0,1.16,2l14.69,8.37a2.58,2.58,0,0,0,2.32,0l14.68-8.37a2.52,2.52,0,0,0,1.16-2V109.7l28.66-15.81A7,7,0,0,0,119,88.35V79.23l-4,2.26ZM60,9.93,70,4.28,80,9.93V21.07L70,26.72,60,21.07ZM10,40.63l13-7.41,13,7.41V55.37L23,62.78,10,55.37Zm73,75.74-13,7.41-13-7.41V101.63l13-7.41,13,7.41Z"></path><path d="M66,100.26l-4,2.27a2,2,0,0,0-1,1.74V110a2,2,0,0,0,4,0v-4l.39-.79L68,103.74a2,2,0,0,0-2-3.48Z"></path><path d="M92,40.27l-10,5.8a2,2,0,0,0-1,1.73V58a2,2,0,0,0,4,0V49l9-5.22a2,2,0,0,0-2-3.46Z"></path></svg>